<svg xmlns="http://www.w3.org/2000/svg" width="800" height="994" viewBox="0 0 800 994" font-family="-apple-system,Segoe UI,Helvetica,Arial,sans-serif"><rect width="100%" height="100%" fill="#ffffff"/><text x="20.0" y="28.0" font-family="-apple-system,Segoe UI,Helvetica,Arial,sans-serif" font-size="16" font-weight="700" fill="#1f2328" text-anchor="start">Proposal 002 — sweep_below simulation</text><text x="20.0" y="46.0" font-family="-apple-system,Segoe UI,Helvetica,Arial,sans-serif" font-size="11" font-weight="normal" fill="#6e7781" text-anchor="start">start: 11110 UTXOs, balance 468920 ZANO   |   fee per tx: 0.01 ZANO   |   input cap per tx: 80</text><rect x="20" y="68" width="760" height="110" fill="#ffffff" stroke="#d0d7de" rx="6"/><text x="34.0" y="90.0" font-family="-apple-system,Segoe UI,Helvetica,Arial,sans-serif" font-size="13" font-weight="600" fill="#1f2328" text-anchor="start">Initial pool — 11110 UTXOs, biggest 49033, balance 468920</text><rect x="130.00" y="139.03" width="15.35" height="2.97" fill="#0a8a3a"/><rect x="145.75" y="135.10" width="15.35" height="6.90" fill="#0a8a3a"/><rect x="161.50" y="137.29" width="15.35" height="4.71" fill="#0a8a3a"/><rect x="177.25" y="133.65" width="15.35" height="8.35" fill="#0a8a3a"/><rect x="193.00" y="133.08" width="15.35" height="8.92" fill="#0a8a3a"/><rect x="208.75" y="131.71" width="15.35" height="10.29" fill="#0a8a3a"/><rect x="224.50" y="129.15" width="15.35" height="12.85" fill="#0a8a3a"/><rect x="240.25" y="124.89" width="15.35" height="17.11" fill="#0a8a3a"/><rect x="256.00" y="124.51" width="15.35" height="17.49" fill="#0a8a3a"/><rect x="271.75" y="121.16" width="15.35" height="20.84" fill="#0a8a3a"/><rect x="287.50" y="118.66" width="15.35" height="23.34" fill="#0a8a3a"/><rect x="303.25" y="115.63" width="15.35" height="26.37" fill="#0a8a3a"/><rect x="319.00" y="113.25" width="15.35" height="28.75" fill="#0a8a3a"/><rect x="334.75" y="111.05" width="15.35" height="30.95" fill="#0a8a3a"/><rect x="350.50" y="108.57" width="15.35" height="33.43" fill="#0a8a3a"/><rect x="366.25" y="106.00" width="15.35" height="36.00" fill="#0a8a3a"/><rect x="382.00" y="122.75" width="15.35" height="19.25" fill="#0a8a3a"/><rect x="397.75" y="120.65" width="15.35" height="21.35" fill="#0a8a3a"/><rect x="413.50" y="117.65" width="15.35" height="24.35" fill="#0a8a3a"/><rect x="429.25" y="115.54" width="15.35" height="26.46" fill="#0a8a3a"/><rect x="445.00" y="132.58" width="15.35" height="9.42" fill="#0a8a3a"/><rect x="460.75" y="131.71" width="15.35" height="10.29" fill="#0a8a3a"/><rect x="476.50" y="126.29" width="15.35" height="15.71" fill="#0a8a3a"/><rect x="492.25" y="125.67" width="15.35" height="16.33" fill="#0a8a3a"/><rect x="539.50" y="139.03" width="15.35" height="2.97" fill="#0a8a3a"/><rect x="555.25" y="139.03" width="15.35" height="2.97" fill="#0a8a3a"/><rect x="586.75" y="137.29" width="15.35" height="4.71" fill="#0a8a3a"/><rect x="602.50" y="133.65" width="15.35" height="8.35" fill="#0a8a3a"/><line x1="130" y1="142" x2="760" y2="142" stroke="#6e7781" stroke-width="0.6"/><line x1="130.0" y1="142" x2="130.0" y2="145" stroke="#6e7781" stroke-width="0.6"/><text x="130.0" y="156.0" font-family="-apple-system,Segoe UI,Helvetica,Arial,sans-serif" font-size="10" font-weight="normal" fill="#6e7781" text-anchor="middle">10^-3</text><line x1="193.0" y1="142" x2="193.0" y2="145" stroke="#6e7781" stroke-width="0.6"/><text x="193.0" y="156.0" font-family="-apple-system,Segoe UI,Helvetica,Arial,sans-serif" font-size="10" font-weight="normal" fill="#6e7781" text-anchor="middle">10^-2</text><line x1="256.0" y1="142" x2="256.0" y2="145" stroke="#6e7781" stroke-width="0.6"/><text x="256.0" y="156.0" font-family="-apple-system,Segoe UI,Helvetica,Arial,sans-serif" font-size="10" font-weight="normal" fill="#6e7781" text-anchor="middle">0.1</text><line x1="319.0" y1="142" x2="319.0" y2="145" stroke="#6e7781" stroke-width="0.6"/><text x="319.0" y="156.0" font-family="-apple-system,Segoe UI,Helvetica,Arial,sans-serif" font-size="10" font-weight="normal" fill="#6e7781" text-anchor="middle">1</text><line x1="382.0" y1="142" x2="382.0" y2="145" stroke="#6e7781" stroke-width="0.6"/><text x="382.0" y="156.0" font-family="-apple-system,Segoe UI,Helvetica,Arial,sans-serif" font-size="10" font-weight="normal" fill="#6e7781" text-anchor="middle">10</text><line x1="445.0" y1="142" x2="445.0" y2="145" stroke="#6e7781" stroke-width="0.6"/><text x="445.0" y="156.0" font-family="-apple-system,Segoe UI,Helvetica,Arial,sans-serif" font-size="10" font-weight="normal" fill="#6e7781" text-anchor="middle">10^2</text><line x1="508.0" y1="142" x2="508.0" y2="145" stroke="#6e7781" stroke-width="0.6"/><text x="508.0" y="156.0" font-family="-apple-system,Segoe UI,Helvetica,Arial,sans-serif" font-size="10" font-weight="normal" fill="#6e7781" text-anchor="middle">10^3</text><line x1="571.0" y1="142" x2="571.0" y2="145" stroke="#6e7781" stroke-width="0.6"/><text x="571.0" y="156.0" font-family="-apple-system,Segoe UI,Helvetica,Arial,sans-serif" font-size="10" font-weight="normal" fill="#6e7781" text-anchor="middle">10^4</text><line x1="634.0" y1="142" x2="634.0" y2="145" stroke="#6e7781" stroke-width="0.6"/><text x="634.0" y="156.0" font-family="-apple-system,Segoe UI,Helvetica,Arial,sans-serif" font-size="10" font-weight="normal" fill="#6e7781" text-anchor="middle">10^5</text><line x1="697.0" y1="142" x2="697.0" y2="145" stroke="#6e7781" stroke-width="0.6"/><text x="697.0" y="156.0" font-family="-apple-system,Segoe UI,Helvetica,Arial,sans-serif" font-size="10" font-weight="normal" fill="#6e7781" text-anchor="middle">10^6</text><line x1="760.0" y1="142" x2="760.0" y2="145" stroke="#6e7781" stroke-width="0.6"/><text x="760.0" y="156.0" font-family="-apple-system,Segoe UI,Helvetica,Arial,sans-serif" font-size="10" font-weight="normal" fill="#6e7781" text-anchor="middle">10^7</text><line x1="127" y1="142.0" x2="130" y2="142.0" stroke="#6e7781" stroke-width="0.6"/><text x="124.0" y="145.0" font-family="-apple-system,Segoe UI,Helvetica,Arial,sans-serif" font-size="10" font-weight="normal" fill="#6e7781" text-anchor="end">1</text><line x1="127" y1="132.1" x2="130" y2="132.1" stroke="#6e7781" stroke-width="0.6"/><text x="124.0" y="135.1" font-family="-apple-system,Segoe UI,Helvetica,Arial,sans-serif" font-size="10" font-weight="normal" fill="#6e7781" text-anchor="end">10</text><line x1="127" y1="122.2" x2="130" y2="122.2" stroke="#6e7781" stroke-width="0.6"/><text x="124.0" y="125.2" font-family="-apple-system,Segoe UI,Helvetica,Arial,sans-serif" font-size="10" font-weight="normal" fill="#6e7781" text-anchor="end">100</text><line x1="127" y1="112.4" x2="130" y2="112.4" stroke="#6e7781" stroke-width="0.6"/><text x="124.0" y="115.4" font-family="-apple-system,Segoe UI,Helvetica,Arial,sans-serif" font-size="10" font-weight="normal" fill="#6e7781" text-anchor="end">1000</text><text x="445.0" y="174.0" font-family="-apple-system,Segoe UI,Helvetica,Arial,sans-serif" font-size="10" font-weight="normal" fill="#6e7781" text-anchor="middle">UTXO amount (ZANO, log)</text><text x="34.0" y="124.0" font-family="-apple-system,Segoe UI,Helvetica,Arial,sans-serif" font-size="10" font-weight="normal" fill="#6e7781" text-anchor="start">count</text><rect x="20" y="196" width="760" height="110" fill="#ffffff" stroke="#d0d7de" rx="6"/><text x="34.0" y="218.0" font-family="-apple-system,Segoe UI,Helvetica,Arial,sans-serif" font-size="13" font-weight="600" fill="#1f2328" text-anchor="start">threshold = 10 ZANO  →  1235 UTXOs   |   biggest 49033   |   125 txs   |   max inputs/tx 80   |   fees 1.25   |   converged</text><rect x="130.00" y="267.03" width="15.35" height="2.97" fill="#0a8a3a"/><rect x="382.00" y="250.70" width="15.35" height="19.30" fill="#0a8a3a"/><rect x="397.75" y="248.60" width="15.35" height="21.40" fill="#0a8a3a"/><rect x="413.50" y="245.59" width="15.35" height="24.41" fill="#0a8a3a"/><rect x="429.25" y="243.47" width="15.35" height="26.53" fill="#0a8a3a"/><rect x="445.00" y="256.94" width="15.35" height="13.06" fill="#0a8a3a"/><rect x="460.75" y="255.13" width="15.35" height="14.87" fill="#0a8a3a"/><rect x="476.50" y="251.31" width="15.35" height="18.69" fill="#0a8a3a"/><rect x="492.25" y="251.10" width="15.35" height="18.90" fill="#0a8a3a"/><rect x="539.50" y="267.03" width="15.35" height="2.97" fill="#0a8a3a"/><rect x="555.25" y="267.03" width="15.35" height="2.97" fill="#0a8a3a"/><rect x="586.75" y="265.29" width="15.35" height="4.71" fill="#0a8a3a"/><rect x="602.50" y="261.65" width="15.35" height="8.35" fill="#0a8a3a"/><line x1="382.0" y1="230" x2="382.0" y2="270" stroke="#cf222e" stroke-width="1.5" stroke-dasharray="4 3"/><text x="386.0" y="244.0" font-family="-apple-system,Segoe UI,Helvetica,Arial,sans-serif" font-size="10" font-weight="600" fill="#cf222e" text-anchor="start">thr = 10 ZANO</text><line x1="130" y1="270" x2="760" y2="270" stroke="#6e7781" stroke-width="0.6"/><line x1="130.0" y1="270" x2="130.0" y2="273" stroke="#6e7781" stroke-width="0.6"/><text x="130.0" y="284.0" font-family="-apple-system,Segoe UI,Helvetica,Arial,sans-serif" font-size="10" font-weight="normal" fill="#6e7781" text-anchor="middle">10^-3</text><line x1="193.0" y1="270" x2="193.0" y2="273" stroke="#6e7781" stroke-width="0.6"/><text x="193.0" y="284.0" font-family="-apple-system,Segoe UI,Helvetica,Arial,sans-serif" font-size="10" font-weight="normal" fill="#6e7781" text-anchor="middle">10^-2</text><line x1="256.0" y1="270" x2="256.0" y2="273" stroke="#6e7781" stroke-width="0.6"/><text x="256.0" y="284.0" font-family="-apple-system,Segoe UI,Helvetica,Arial,sans-serif" font-size="10" font-weight="normal" fill="#6e7781" text-anchor="middle">0.1</text><line x1="319.0" y1="270" x2="319.0" y2="273" stroke="#6e7781" stroke-width="0.6"/><text x="319.0" y="284.0" font-family="-apple-system,Segoe UI,Helvetica,Arial,sans-serif" font-size="10" font-weight="normal" fill="#6e7781" text-anchor="middle">1</text><line x1="382.0" y1="270" x2="382.0" y2="273" stroke="#6e7781" stroke-width="0.6"/><text x="382.0" y="284.0" font-family="-apple-system,Segoe UI,Helvetica,Arial,sans-serif" font-size="10" font-weight="normal" fill="#6e7781" text-anchor="middle">10</text><line x1="445.0" y1="270" x2="445.0" y2="273" stroke="#6e7781" stroke-width="0.6"/><text x="445.0" y="284.0" font-family="-apple-system,Segoe UI,Helvetica,Arial,sans-serif" font-size="10" font-weight="normal" fill="#6e7781" text-anchor="middle">10^2</text><line x1="508.0" y1="270" x2="508.0" y2="273" stroke="#6e7781" stroke-width="0.6"/><text x="508.0" y="284.0" font-family="-apple-system,Segoe UI,Helvetica,Arial,sans-serif" font-size="10" font-weight="normal" fill="#6e7781" text-anchor="middle">10^3</text><line x1="571.0" y1="270" x2="571.0" y2="273" stroke="#6e7781" stroke-width="0.6"/><text x="571.0" y="284.0" font-family="-apple-system,Segoe UI,Helvetica,Arial,sans-serif" font-size="10" font-weight="normal" fill="#6e7781" text-anchor="middle">10^4</text><line x1="634.0" y1="270" x2="634.0" y2="273" stroke="#6e7781" stroke-width="0.6"/><text x="634.0" y="284.0" font-family="-apple-system,Segoe UI,Helvetica,Arial,sans-serif" font-size="10" font-weight="normal" fill="#6e7781" text-anchor="middle">10^5</text><line x1="697.0" y1="270" x2="697.0" y2="273" stroke="#6e7781" stroke-width="0.6"/><text x="697.0" y="284.0" font-family="-apple-system,Segoe UI,Helvetica,Arial,sans-serif" font-size="10" font-weight="normal" fill="#6e7781" text-anchor="middle">10^6</text><line x1="760.0" y1="270" x2="760.0" y2="273" stroke="#6e7781" stroke-width="0.6"/><text x="760.0" y="284.0" font-family="-apple-system,Segoe UI,Helvetica,Arial,sans-serif" font-size="10" font-weight="normal" fill="#6e7781" text-anchor="middle">10^7</text><line x1="127" y1="270.0" x2="130" y2="270.0" stroke="#6e7781" stroke-width="0.6"/><text x="124.0" y="273.0" font-family="-apple-system,Segoe UI,Helvetica,Arial,sans-serif" font-size="10" font-weight="normal" fill="#6e7781" text-anchor="end">1</text><line x1="127" y1="260.1" x2="130" y2="260.1" stroke="#6e7781" stroke-width="0.6"/><text x="124.0" y="263.1" font-family="-apple-system,Segoe UI,Helvetica,Arial,sans-serif" font-size="10" font-weight="normal" fill="#6e7781" text-anchor="end">10</text><line x1="127" y1="250.2" x2="130" y2="250.2" stroke="#6e7781" stroke-width="0.6"/><text x="124.0" y="253.2" font-family="-apple-system,Segoe UI,Helvetica,Arial,sans-serif" font-size="10" font-weight="normal" fill="#6e7781" text-anchor="end">100</text><line x1="127" y1="240.4" x2="130" y2="240.4" stroke="#6e7781" stroke-width="0.6"/><text x="124.0" y="243.4" font-family="-apple-system,Segoe UI,Helvetica,Arial,sans-serif" font-size="10" font-weight="normal" fill="#6e7781" text-anchor="end">1000</text><text x="445.0" y="302.0" font-family="-apple-system,Segoe UI,Helvetica,Arial,sans-serif" font-size="10" font-weight="normal" fill="#6e7781" text-anchor="middle">UTXO amount (ZANO, log)</text><text x="34.0" y="252.0" font-family="-apple-system,Segoe UI,Helvetica,Arial,sans-serif" font-size="10" font-weight="normal" fill="#6e7781" text-anchor="start">count</text><rect x="20" y="324" width="760" height="110" fill="#ffffff" stroke="#d0d7de" rx="6"/><text x="34.0" y="346.0" font-family="-apple-system,Segoe UI,Helvetica,Arial,sans-serif" font-size="13" font-weight="600" fill="#1f2328" text-anchor="start">threshold = 100 ZANO  →  238 UTXOs   |   biggest 49033   |   138 txs   |   max inputs/tx 80   |   fees 1.38   |   guard (residual &lt;thr)</text><rect x="429.25" y="395.03" width="15.35" height="2.97" fill="#0a8a3a"/><rect x="445.00" y="384.19" width="15.35" height="13.81" fill="#0a8a3a"/><rect x="460.75" y="382.87" width="15.35" height="15.13" fill="#0a8a3a"/><rect x="476.50" y="379.31" width="15.35" height="18.69" fill="#0a8a3a"/><rect x="492.25" y="379.10" width="15.35" height="18.90" fill="#0a8a3a"/><rect x="508.00" y="395.03" width="15.35" height="2.97" fill="#0a8a3a"/><rect x="523.75" y="392.05" width="15.35" height="5.95" fill="#0a8a3a"/><rect x="539.50" y="390.31" width="15.35" height="7.69" fill="#0a8a3a"/><rect x="555.25" y="390.31" width="15.35" height="7.69" fill="#0a8a3a"/><rect x="586.75" y="393.29" width="15.35" height="4.71" fill="#0a8a3a"/><rect x="602.50" y="389.65" width="15.35" height="8.35" fill="#0a8a3a"/><line x1="445.0" y1="358" x2="445.0" y2="398" stroke="#cf222e" stroke-width="1.5" stroke-dasharray="4 3"/><text x="449.0" y="372.0" font-family="-apple-system,Segoe UI,Helvetica,Arial,sans-serif" font-size="10" font-weight="600" fill="#cf222e" text-anchor="start">thr = 100 ZANO</text><line x1="130" y1="398" x2="760" y2="398" stroke="#6e7781" stroke-width="0.6"/><line x1="130.0" y1="398" x2="130.0" y2="401" stroke="#6e7781" stroke-width="0.6"/><text x="130.0" y="412.0" font-family="-apple-system,Segoe UI,Helvetica,Arial,sans-serif" font-size="10" font-weight="normal" fill="#6e7781" text-anchor="middle">10^-3</text><line x1="193.0" y1="398" x2="193.0" y2="401" stroke="#6e7781" stroke-width="0.6"/><text x="193.0" y="412.0" font-family="-apple-system,Segoe UI,Helvetica,Arial,sans-serif" font-size="10" font-weight="normal" fill="#6e7781" text-anchor="middle">10^-2</text><line x1="256.0" y1="398" x2="256.0" y2="401" stroke="#6e7781" stroke-width="0.6"/><text x="256.0" y="412.0" font-family="-apple-system,Segoe UI,Helvetica,Arial,sans-serif" font-size="10" font-weight="normal" fill="#6e7781" text-anchor="middle">0.1</text><line x1="319.0" y1="398" x2="319.0" y2="401" stroke="#6e7781" stroke-width="0.6"/><text x="319.0" y="412.0" font-family="-apple-system,Segoe UI,Helvetica,Arial,sans-serif" font-size="10" font-weight="normal" fill="#6e7781" text-anchor="middle">1</text><line x1="382.0" y1="398" x2="382.0" y2="401" stroke="#6e7781" stroke-width="0.6"/><text x="382.0" y="412.0" font-family="-apple-system,Segoe UI,Helvetica,Arial,sans-serif" font-size="10" font-weight="normal" fill="#6e7781" text-anchor="middle">10</text><line x1="445.0" y1="398" x2="445.0" y2="401" stroke="#6e7781" stroke-width="0.6"/><text x="445.0" y="412.0" font-family="-apple-system,Segoe UI,Helvetica,Arial,sans-serif" font-size="10" font-weight="normal" fill="#6e7781" text-anchor="middle">10^2</text><line x1="508.0" y1="398" x2="508.0" y2="401" stroke="#6e7781" stroke-width="0.6"/><text x="508.0" y="412.0" font-family="-apple-system,Segoe UI,Helvetica,Arial,sans-serif" font-size="10" font-weight="normal" fill="#6e7781" text-anchor="middle">10^3</text><line x1="571.0" y1="398" x2="571.0" y2="401" stroke="#6e7781" stroke-width="0.6"/><text x="571.0" y="412.0" font-family="-apple-system,Segoe UI,Helvetica,Arial,sans-serif" font-size="10" font-weight="normal" fill="#6e7781" text-anchor="middle">10^4</text><line x1="634.0" y1="398" x2="634.0" y2="401" stroke="#6e7781" stroke-width="0.6"/><text x="634.0" y="412.0" font-family="-apple-system,Segoe UI,Helvetica,Arial,sans-serif" font-size="10" font-weight="normal" fill="#6e7781" text-anchor="middle">10^5</text><line x1="697.0" y1="398" x2="697.0" y2="401" stroke="#6e7781" stroke-width="0.6"/><text x="697.0" y="412.0" font-family="-apple-system,Segoe UI,Helvetica,Arial,sans-serif" font-size="10" font-weight="normal" fill="#6e7781" text-anchor="middle">10^6</text><line x1="760.0" y1="398" x2="760.0" y2="401" stroke="#6e7781" stroke-width="0.6"/><text x="760.0" y="412.0" font-family="-apple-system,Segoe UI,Helvetica,Arial,sans-serif" font-size="10" font-weight="normal" fill="#6e7781" text-anchor="middle">10^7</text><line x1="127" y1="398.0" x2="130" y2="398.0" stroke="#6e7781" stroke-width="0.6"/><text x="124.0" y="401.0" font-family="-apple-system,Segoe UI,Helvetica,Arial,sans-serif" font-size="10" font-weight="normal" fill="#6e7781" text-anchor="end">1</text><line x1="127" y1="388.1" x2="130" y2="388.1" stroke="#6e7781" stroke-width="0.6"/><text x="124.0" y="391.1" font-family="-apple-system,Segoe UI,Helvetica,Arial,sans-serif" font-size="10" font-weight="normal" fill="#6e7781" text-anchor="end">10</text><line x1="127" y1="378.2" x2="130" y2="378.2" stroke="#6e7781" stroke-width="0.6"/><text x="124.0" y="381.2" font-family="-apple-system,Segoe UI,Helvetica,Arial,sans-serif" font-size="10" font-weight="normal" fill="#6e7781" text-anchor="end">100</text><line x1="127" y1="368.4" x2="130" y2="368.4" stroke="#6e7781" stroke-width="0.6"/><text x="124.0" y="371.4" font-family="-apple-system,Segoe UI,Helvetica,Arial,sans-serif" font-size="10" font-weight="normal" fill="#6e7781" text-anchor="end">1000</text><text x="445.0" y="430.0" font-family="-apple-system,Segoe UI,Helvetica,Arial,sans-serif" font-size="10" font-weight="normal" fill="#6e7781" text-anchor="middle">UTXO amount (ZANO, log)</text><text x="34.0" y="380.0" font-family="-apple-system,Segoe UI,Helvetica,Arial,sans-serif" font-size="10" font-weight="normal" fill="#6e7781" text-anchor="start">count</text><rect x="20" y="452" width="760" height="110" fill="#ffffff" stroke="#d0d7de" rx="6"/><text x="34.0" y="474.0" font-family="-apple-system,Segoe UI,Helvetica,Arial,sans-serif" font-size="13" font-weight="600" fill="#1f2328" text-anchor="start">threshold = 1 000 ZANO  →  64 UTXOs   |   biggest 49449   |   140 txs   |   max inputs/tx 80   |   fees 1.40   |   guard (residual &lt;thr)</text><rect x="492.25" y="523.03" width="15.35" height="2.97" fill="#0a8a3a"/><rect x="508.00" y="509.97" width="15.35" height="16.03" fill="#0a8a3a"/><rect x="523.75" y="521.29" width="15.35" height="4.71" fill="#0a8a3a"/><rect x="539.50" y="517.65" width="15.35" height="8.35" fill="#0a8a3a"/><rect x="555.25" y="518.31" width="15.35" height="7.69" fill="#0a8a3a"/><rect x="586.75" y="521.29" width="15.35" height="4.71" fill="#0a8a3a"/><rect x="602.50" y="517.08" width="15.35" height="8.92" fill="#0a8a3a"/><line x1="508.0" y1="486" x2="508.0" y2="526" stroke="#cf222e" stroke-width="1.5" stroke-dasharray="4 3"/><text x="512.0" y="500.0" font-family="-apple-system,Segoe UI,Helvetica,Arial,sans-serif" font-size="10" font-weight="600" fill="#cf222e" text-anchor="start">thr = 1000 ZANO</text><line x1="130" y1="526" x2="760" y2="526" stroke="#6e7781" stroke-width="0.6"/><line x1="130.0" y1="526" x2="130.0" y2="529" stroke="#6e7781" stroke-width="0.6"/><text x="130.0" y="540.0" font-family="-apple-system,Segoe UI,Helvetica,Arial,sans-serif" font-size="10" font-weight="normal" fill="#6e7781" text-anchor="middle">10^-3</text><line x1="193.0" y1="526" x2="193.0" y2="529" stroke="#6e7781" stroke-width="0.6"/><text x="193.0" y="540.0" font-family="-apple-system,Segoe UI,Helvetica,Arial,sans-serif" font-size="10" font-weight="normal" fill="#6e7781" text-anchor="middle">10^-2</text><line x1="256.0" y1="526" x2="256.0" y2="529" stroke="#6e7781" stroke-width="0.6"/><text x="256.0" y="540.0" font-family="-apple-system,Segoe UI,Helvetica,Arial,sans-serif" font-size="10" font-weight="normal" fill="#6e7781" text-anchor="middle">0.1</text><line x1="319.0" y1="526" x2="319.0" y2="529" stroke="#6e7781" stroke-width="0.6"/><text x="319.0" y="540.0" font-family="-apple-system,Segoe UI,Helvetica,Arial,sans-serif" font-size="10" font-weight="normal" fill="#6e7781" text-anchor="middle">1</text><line x1="382.0" y1="526" x2="382.0" y2="529" stroke="#6e7781" stroke-width="0.6"/><text x="382.0" y="540.0" font-family="-apple-system,Segoe UI,Helvetica,Arial,sans-serif" font-size="10" font-weight="normal" fill="#6e7781" text-anchor="middle">10</text><line x1="445.0" y1="526" x2="445.0" y2="529" stroke="#6e7781" stroke-width="0.6"/><text x="445.0" y="540.0" font-family="-apple-system,Segoe UI,Helvetica,Arial,sans-serif" font-size="10" font-weight="normal" fill="#6e7781" text-anchor="middle">10^2</text><line x1="508.0" y1="526" x2="508.0" y2="529" stroke="#6e7781" stroke-width="0.6"/><text x="508.0" y="540.0" font-family="-apple-system,Segoe UI,Helvetica,Arial,sans-serif" font-size="10" font-weight="normal" fill="#6e7781" text-anchor="middle">10^3</text><line x1="571.0" y1="526" x2="571.0" y2="529" stroke="#6e7781" stroke-width="0.6"/><text x="571.0" y="540.0" font-family="-apple-system,Segoe UI,Helvetica,Arial,sans-serif" font-size="10" font-weight="normal" fill="#6e7781" text-anchor="middle">10^4</text><line x1="634.0" y1="526" x2="634.0" y2="529" stroke="#6e7781" stroke-width="0.6"/><text x="634.0" y="540.0" font-family="-apple-system,Segoe UI,Helvetica,Arial,sans-serif" font-size="10" font-weight="normal" fill="#6e7781" text-anchor="middle">10^5</text><line x1="697.0" y1="526" x2="697.0" y2="529" stroke="#6e7781" stroke-width="0.6"/><text x="697.0" y="540.0" font-family="-apple-system,Segoe UI,Helvetica,Arial,sans-serif" font-size="10" font-weight="normal" fill="#6e7781" text-anchor="middle">10^6</text><line x1="760.0" y1="526" x2="760.0" y2="529" stroke="#6e7781" stroke-width="0.6"/><text x="760.0" y="540.0" font-family="-apple-system,Segoe UI,Helvetica,Arial,sans-serif" font-size="10" font-weight="normal" fill="#6e7781" text-anchor="middle">10^7</text><line x1="127" y1="526.0" x2="130" y2="526.0" stroke="#6e7781" stroke-width="0.6"/><text x="124.0" y="529.0" font-family="-apple-system,Segoe UI,Helvetica,Arial,sans-serif" font-size="10" font-weight="normal" fill="#6e7781" text-anchor="end">1</text><line x1="127" y1="516.1" x2="130" y2="516.1" stroke="#6e7781" stroke-width="0.6"/><text x="124.0" y="519.1" font-family="-apple-system,Segoe UI,Helvetica,Arial,sans-serif" font-size="10" font-weight="normal" fill="#6e7781" text-anchor="end">10</text><line x1="127" y1="506.2" x2="130" y2="506.2" stroke="#6e7781" stroke-width="0.6"/><text x="124.0" y="509.2" font-family="-apple-system,Segoe UI,Helvetica,Arial,sans-serif" font-size="10" font-weight="normal" fill="#6e7781" text-anchor="end">100</text><line x1="127" y1="496.4" x2="130" y2="496.4" stroke="#6e7781" stroke-width="0.6"/><text x="124.0" y="499.4" font-family="-apple-system,Segoe UI,Helvetica,Arial,sans-serif" font-size="10" font-weight="normal" fill="#6e7781" text-anchor="end">1000</text><text x="445.0" y="558.0" font-family="-apple-system,Segoe UI,Helvetica,Arial,sans-serif" font-size="10" font-weight="normal" fill="#6e7781" text-anchor="middle">UTXO amount (ZANO, log)</text><text x="34.0" y="508.0" font-family="-apple-system,Segoe UI,Helvetica,Arial,sans-serif" font-size="10" font-weight="normal" fill="#6e7781" text-anchor="start">count</text><rect x="20" y="580" width="760" height="110" fill="#ffffff" stroke="#d0d7de" rx="6"/><text x="34.0" y="602.0" font-family="-apple-system,Segoe UI,Helvetica,Arial,sans-serif" font-size="13" font-weight="600" fill="#1f2328" text-anchor="start">threshold = 10 000 ZANO  →  19 UTXOs   |   biggest 61839   |   141 txs   |   max inputs/tx 80   |   fees 1.41   |   guard (residual &lt;thr)</text><rect x="555.25" y="651.03" width="15.35" height="2.97" fill="#0a8a3a"/><rect x="571.00" y="644.12" width="15.35" height="9.88" fill="#0a8a3a"/><rect x="586.75" y="649.29" width="15.35" height="4.71" fill="#0a8a3a"/><rect x="602.50" y="645.65" width="15.35" height="8.35" fill="#0a8a3a"/><rect x="618.25" y="651.03" width="15.35" height="2.97" fill="#0a8a3a"/><line x1="571.0" y1="614" x2="571.0" y2="654" stroke="#cf222e" stroke-width="1.5" stroke-dasharray="4 3"/><text x="575.0" y="628.0" font-family="-apple-system,Segoe UI,Helvetica,Arial,sans-serif" font-size="10" font-weight="600" fill="#cf222e" text-anchor="start">thr = 10000 ZANO</text><line x1="130" y1="654" x2="760" y2="654" stroke="#6e7781" stroke-width="0.6"/><line x1="130.0" y1="654" x2="130.0" y2="657" stroke="#6e7781" stroke-width="0.6"/><text x="130.0" y="668.0" font-family="-apple-system,Segoe UI,Helvetica,Arial,sans-serif" font-size="10" font-weight="normal" fill="#6e7781" text-anchor="middle">10^-3</text><line x1="193.0" y1="654" x2="193.0" y2="657" stroke="#6e7781" stroke-width="0.6"/><text x="193.0" y="668.0" font-family="-apple-system,Segoe UI,Helvetica,Arial,sans-serif" font-size="10" font-weight="normal" fill="#6e7781" text-anchor="middle">10^-2</text><line x1="256.0" y1="654" x2="256.0" y2="657" stroke="#6e7781" stroke-width="0.6"/><text x="256.0" y="668.0" font-family="-apple-system,Segoe UI,Helvetica,Arial,sans-serif" font-size="10" font-weight="normal" fill="#6e7781" text-anchor="middle">0.1</text><line x1="319.0" y1="654" x2="319.0" y2="657" stroke="#6e7781" stroke-width="0.6"/><text x="319.0" y="668.0" font-family="-apple-system,Segoe UI,Helvetica,Arial,sans-serif" font-size="10" font-weight="normal" fill="#6e7781" text-anchor="middle">1</text><line x1="382.0" y1="654" x2="382.0" y2="657" stroke="#6e7781" stroke-width="0.6"/><text x="382.0" y="668.0" font-family="-apple-system,Segoe UI,Helvetica,Arial,sans-serif" font-size="10" font-weight="normal" fill="#6e7781" text-anchor="middle">10</text><line x1="445.0" y1="654" x2="445.0" y2="657" stroke="#6e7781" stroke-width="0.6"/><text x="445.0" y="668.0" font-family="-apple-system,Segoe UI,Helvetica,Arial,sans-serif" font-size="10" font-weight="normal" fill="#6e7781" text-anchor="middle">10^2</text><line x1="508.0" y1="654" x2="508.0" y2="657" stroke="#6e7781" stroke-width="0.6"/><text x="508.0" y="668.0" font-family="-apple-system,Segoe UI,Helvetica,Arial,sans-serif" font-size="10" font-weight="normal" fill="#6e7781" text-anchor="middle">10^3</text><line x1="571.0" y1="654" x2="571.0" y2="657" stroke="#6e7781" stroke-width="0.6"/><text x="571.0" y="668.0" font-family="-apple-system,Segoe UI,Helvetica,Arial,sans-serif" font-size="10" font-weight="normal" fill="#6e7781" text-anchor="middle">10^4</text><line x1="634.0" y1="654" x2="634.0" y2="657" stroke="#6e7781" stroke-width="0.6"/><text x="634.0" y="668.0" font-family="-apple-system,Segoe UI,Helvetica,Arial,sans-serif" font-size="10" font-weight="normal" fill="#6e7781" text-anchor="middle">10^5</text><line x1="697.0" y1="654" x2="697.0" y2="657" stroke="#6e7781" stroke-width="0.6"/><text x="697.0" y="668.0" font-family="-apple-system,Segoe UI,Helvetica,Arial,sans-serif" font-size="10" font-weight="normal" fill="#6e7781" text-anchor="middle">10^6</text><line x1="760.0" y1="654" x2="760.0" y2="657" stroke="#6e7781" stroke-width="0.6"/><text x="760.0" y="668.0" font-family="-apple-system,Segoe UI,Helvetica,Arial,sans-serif" font-size="10" font-weight="normal" fill="#6e7781" text-anchor="middle">10^7</text><line x1="127" y1="654.0" x2="130" y2="654.0" stroke="#6e7781" stroke-width="0.6"/><text x="124.0" y="657.0" font-family="-apple-system,Segoe UI,Helvetica,Arial,sans-serif" font-size="10" font-weight="normal" fill="#6e7781" text-anchor="end">1</text><line x1="127" y1="644.1" x2="130" y2="644.1" stroke="#6e7781" stroke-width="0.6"/><text x="124.0" y="647.1" font-family="-apple-system,Segoe UI,Helvetica,Arial,sans-serif" font-size="10" font-weight="normal" fill="#6e7781" text-anchor="end">10</text><line x1="127" y1="634.2" x2="130" y2="634.2" stroke="#6e7781" stroke-width="0.6"/><text x="124.0" y="637.2" font-family="-apple-system,Segoe UI,Helvetica,Arial,sans-serif" font-size="10" font-weight="normal" fill="#6e7781" text-anchor="end">100</text><line x1="127" y1="624.4" x2="130" y2="624.4" stroke="#6e7781" stroke-width="0.6"/><text x="124.0" y="627.4" font-family="-apple-system,Segoe UI,Helvetica,Arial,sans-serif" font-size="10" font-weight="normal" fill="#6e7781" text-anchor="end">1000</text><text x="445.0" y="686.0" font-family="-apple-system,Segoe UI,Helvetica,Arial,sans-serif" font-size="10" font-weight="normal" fill="#6e7781" text-anchor="middle">UTXO amount (ZANO, log)</text><text x="34.0" y="636.0" font-family="-apple-system,Segoe UI,Helvetica,Arial,sans-serif" font-size="10" font-weight="normal" fill="#6e7781" text-anchor="start">count</text><rect x="20" y="708" width="760" height="110" fill="#ffffff" stroke="#d0d7de" rx="6"/><text x="34.0" y="730.0" font-family="-apple-system,Segoe UI,Helvetica,Arial,sans-serif" font-size="13" font-weight="600" fill="#1f2328" text-anchor="start">threshold = balance/15 ≈ 31261 ZANO (recommended)  →  11 UTXOs   |   biggest 100119   |   141 txs   |   max inputs/tx 80   |   fees 1.41   |   guard (residual &lt;thr)</text><rect x="571.00" y="779.03" width="15.35" height="2.97" fill="#0a8a3a"/><rect x="586.75" y="777.29" width="15.35" height="4.71" fill="#0a8a3a"/><rect x="602.50" y="773.08" width="15.35" height="8.92" fill="#0a8a3a"/><rect x="634.00" y="779.03" width="15.35" height="2.97" fill="#0a8a3a"/><line x1="602.2" y1="742" x2="602.2" y2="782" stroke="#cf222e" stroke-width="1.5" stroke-dasharray="4 3"/><text x="606.2" y="756.0" font-family="-apple-system,Segoe UI,Helvetica,Arial,sans-serif" font-size="10" font-weight="600" fill="#cf222e" text-anchor="start">thr = 31261.3 ZANO</text><line x1="130" y1="782" x2="760" y2="782" stroke="#6e7781" stroke-width="0.6"/><line x1="130.0" y1="782" x2="130.0" y2="785" stroke="#6e7781" stroke-width="0.6"/><text x="130.0" y="796.0" font-family="-apple-system,Segoe UI,Helvetica,Arial,sans-serif" font-size="10" font-weight="normal" fill="#6e7781" text-anchor="middle">10^-3</text><line x1="193.0" y1="782" x2="193.0" y2="785" stroke="#6e7781" stroke-width="0.6"/><text x="193.0" y="796.0" font-family="-apple-system,Segoe UI,Helvetica,Arial,sans-serif" font-size="10" font-weight="normal" fill="#6e7781" text-anchor="middle">10^-2</text><line x1="256.0" y1="782" x2="256.0" y2="785" stroke="#6e7781" stroke-width="0.6"/><text x="256.0" y="796.0" font-family="-apple-system,Segoe UI,Helvetica,Arial,sans-serif" font-size="10" font-weight="normal" fill="#6e7781" text-anchor="middle">0.1</text><line x1="319.0" y1="782" x2="319.0" y2="785" stroke="#6e7781" stroke-width="0.6"/><text x="319.0" y="796.0" font-family="-apple-system,Segoe UI,Helvetica,Arial,sans-serif" font-size="10" font-weight="normal" fill="#6e7781" text-anchor="middle">1</text><line x1="382.0" y1="782" x2="382.0" y2="785" stroke="#6e7781" stroke-width="0.6"/><text x="382.0" y="796.0" font-family="-apple-system,Segoe UI,Helvetica,Arial,sans-serif" font-size="10" font-weight="normal" fill="#6e7781" text-anchor="middle">10</text><line x1="445.0" y1="782" x2="445.0" y2="785" stroke="#6e7781" stroke-width="0.6"/><text x="445.0" y="796.0" font-family="-apple-system,Segoe UI,Helvetica,Arial,sans-serif" font-size="10" font-weight="normal" fill="#6e7781" text-anchor="middle">10^2</text><line x1="508.0" y1="782" x2="508.0" y2="785" stroke="#6e7781" stroke-width="0.6"/><text x="508.0" y="796.0" font-family="-apple-system,Segoe UI,Helvetica,Arial,sans-serif" font-size="10" font-weight="normal" fill="#6e7781" text-anchor="middle">10^3</text><line x1="571.0" y1="782" x2="571.0" y2="785" stroke="#6e7781" stroke-width="0.6"/><text x="571.0" y="796.0" font-family="-apple-system,Segoe UI,Helvetica,Arial,sans-serif" font-size="10" font-weight="normal" fill="#6e7781" text-anchor="middle">10^4</text><line x1="634.0" y1="782" x2="634.0" y2="785" stroke="#6e7781" stroke-width="0.6"/><text x="634.0" y="796.0" font-family="-apple-system,Segoe UI,Helvetica,Arial,sans-serif" font-size="10" font-weight="normal" fill="#6e7781" text-anchor="middle">10^5</text><line x1="697.0" y1="782" x2="697.0" y2="785" stroke="#6e7781" stroke-width="0.6"/><text x="697.0" y="796.0" font-family="-apple-system,Segoe UI,Helvetica,Arial,sans-serif" font-size="10" font-weight="normal" fill="#6e7781" text-anchor="middle">10^6</text><line x1="760.0" y1="782" x2="760.0" y2="785" stroke="#6e7781" stroke-width="0.6"/><text x="760.0" y="796.0" font-family="-apple-system,Segoe UI,Helvetica,Arial,sans-serif" font-size="10" font-weight="normal" fill="#6e7781" text-anchor="middle">10^7</text><line x1="127" y1="782.0" x2="130" y2="782.0" stroke="#6e7781" stroke-width="0.6"/><text x="124.0" y="785.0" font-family="-apple-system,Segoe UI,Helvetica,Arial,sans-serif" font-size="10" font-weight="normal" fill="#6e7781" text-anchor="end">1</text><line x1="127" y1="772.1" x2="130" y2="772.1" stroke="#6e7781" stroke-width="0.6"/><text x="124.0" y="775.1" font-family="-apple-system,Segoe UI,Helvetica,Arial,sans-serif" font-size="10" font-weight="normal" fill="#6e7781" text-anchor="end">10</text><line x1="127" y1="762.2" x2="130" y2="762.2" stroke="#6e7781" stroke-width="0.6"/><text x="124.0" y="765.2" font-family="-apple-system,Segoe UI,Helvetica,Arial,sans-serif" font-size="10" font-weight="normal" fill="#6e7781" text-anchor="end">100</text><line x1="127" y1="752.4" x2="130" y2="752.4" stroke="#6e7781" stroke-width="0.6"/><text x="124.0" y="755.4" font-family="-apple-system,Segoe UI,Helvetica,Arial,sans-serif" font-size="10" font-weight="normal" fill="#6e7781" text-anchor="end">1000</text><text x="445.0" y="814.0" font-family="-apple-system,Segoe UI,Helvetica,Arial,sans-serif" font-size="10" font-weight="normal" fill="#6e7781" text-anchor="middle">UTXO amount (ZANO, log)</text><text x="34.0" y="764.0" font-family="-apple-system,Segoe UI,Helvetica,Arial,sans-serif" font-size="10" font-weight="normal" fill="#6e7781" text-anchor="start">count</text><rect x="20" y="836" width="760" height="110" fill="#ffffff" stroke="#d0d7de" rx="6"/><text x="34.0" y="858.0" font-family="-apple-system,Segoe UI,Helvetica,Arial,sans-serif" font-size="13" font-weight="600" fill="#1f2328" text-anchor="start">threshold = 50 000 ZANO (sweep everything)  →  4 UTXOs   |   biggest 356373   |   141 txs   |   max inputs/tx 80   |   fees 1.41   |   guard (residual &lt;thr)</text><rect x="571.00" y="907.03" width="15.35" height="2.97" fill="#0a8a3a"/><rect x="602.50" y="905.29" width="15.35" height="4.71" fill="#0a8a3a"/><rect x="665.50" y="907.03" width="15.35" height="2.97" fill="#0a8a3a"/><line x1="615.0" y1="870" x2="615.0" y2="910" stroke="#cf222e" stroke-width="1.5" stroke-dasharray="4 3"/><text x="619.0" y="884.0" font-family="-apple-system,Segoe UI,Helvetica,Arial,sans-serif" font-size="10" font-weight="600" fill="#cf222e" text-anchor="start">thr = 50000 ZANO</text><line x1="130" y1="910" x2="760" y2="910" stroke="#6e7781" stroke-width="0.6"/><line x1="130.0" y1="910" x2="130.0" y2="913" stroke="#6e7781" stroke-width="0.6"/><text x="130.0" y="924.0" font-family="-apple-system,Segoe UI,Helvetica,Arial,sans-serif" font-size="10" font-weight="normal" fill="#6e7781" text-anchor="middle">10^-3</text><line x1="193.0" y1="910" x2="193.0" y2="913" stroke="#6e7781" stroke-width="0.6"/><text x="193.0" y="924.0" font-family="-apple-system,Segoe UI,Helvetica,Arial,sans-serif" font-size="10" font-weight="normal" fill="#6e7781" text-anchor="middle">10^-2</text><line x1="256.0" y1="910" x2="256.0" y2="913" stroke="#6e7781" stroke-width="0.6"/><text x="256.0" y="924.0" font-family="-apple-system,Segoe UI,Helvetica,Arial,sans-serif" font-size="10" font-weight="normal" fill="#6e7781" text-anchor="middle">0.1</text><line x1="319.0" y1="910" x2="319.0" y2="913" stroke="#6e7781" stroke-width="0.6"/><text x="319.0" y="924.0" font-family="-apple-system,Segoe UI,Helvetica,Arial,sans-serif" font-size="10" font-weight="normal" fill="#6e7781" text-anchor="middle">1</text><line x1="382.0" y1="910" x2="382.0" y2="913" stroke="#6e7781" stroke-width="0.6"/><text x="382.0" y="924.0" font-family="-apple-system,Segoe UI,Helvetica,Arial,sans-serif" font-size="10" font-weight="normal" fill="#6e7781" text-anchor="middle">10</text><line x1="445.0" y1="910" x2="445.0" y2="913" stroke="#6e7781" stroke-width="0.6"/><text x="445.0" y="924.0" font-family="-apple-system,Segoe UI,Helvetica,Arial,sans-serif" font-size="10" font-weight="normal" fill="#6e7781" text-anchor="middle">10^2</text><line x1="508.0" y1="910" x2="508.0" y2="913" stroke="#6e7781" stroke-width="0.6"/><text x="508.0" y="924.0" font-family="-apple-system,Segoe UI,Helvetica,Arial,sans-serif" font-size="10" font-weight="normal" fill="#6e7781" text-anchor="middle">10^3</text><line x1="571.0" y1="910" x2="571.0" y2="913" stroke="#6e7781" stroke-width="0.6"/><text x="571.0" y="924.0" font-family="-apple-system,Segoe UI,Helvetica,Arial,sans-serif" font-size="10" font-weight="normal" fill="#6e7781" text-anchor="middle">10^4</text><line x1="634.0" y1="910" x2="634.0" y2="913" stroke="#6e7781" stroke-width="0.6"/><text x="634.0" y="924.0" font-family="-apple-system,Segoe UI,Helvetica,Arial,sans-serif" font-size="10" font-weight="normal" fill="#6e7781" text-anchor="middle">10^5</text><line x1="697.0" y1="910" x2="697.0" y2="913" stroke="#6e7781" stroke-width="0.6"/><text x="697.0" y="924.0" font-family="-apple-system,Segoe UI,Helvetica,Arial,sans-serif" font-size="10" font-weight="normal" fill="#6e7781" text-anchor="middle">10^6</text><line x1="760.0" y1="910" x2="760.0" y2="913" stroke="#6e7781" stroke-width="0.6"/><text x="760.0" y="924.0" font-family="-apple-system,Segoe UI,Helvetica,Arial,sans-serif" font-size="10" font-weight="normal" fill="#6e7781" text-anchor="middle">10^7</text><line x1="127" y1="910.0" x2="130" y2="910.0" stroke="#6e7781" stroke-width="0.6"/><text x="124.0" y="913.0" font-family="-apple-system,Segoe UI,Helvetica,Arial,sans-serif" font-size="10" font-weight="normal" fill="#6e7781" text-anchor="end">1</text><line x1="127" y1="900.1" x2="130" y2="900.1" stroke="#6e7781" stroke-width="0.6"/><text x="124.0" y="903.1" font-family="-apple-system,Segoe UI,Helvetica,Arial,sans-serif" font-size="10" font-weight="normal" fill="#6e7781" text-anchor="end">10</text><line x1="127" y1="890.2" x2="130" y2="890.2" stroke="#6e7781" stroke-width="0.6"/><text x="124.0" y="893.2" font-family="-apple-system,Segoe UI,Helvetica,Arial,sans-serif" font-size="10" font-weight="normal" fill="#6e7781" text-anchor="end">100</text><line x1="127" y1="880.4" x2="130" y2="880.4" stroke="#6e7781" stroke-width="0.6"/><text x="124.0" y="883.4" font-family="-apple-system,Segoe UI,Helvetica,Arial,sans-serif" font-size="10" font-weight="normal" fill="#6e7781" text-anchor="end">1000</text><text x="445.0" y="942.0" font-family="-apple-system,Segoe UI,Helvetica,Arial,sans-serif" font-size="10" font-weight="normal" fill="#6e7781" text-anchor="middle">UTXO amount (ZANO, log)</text><text x="34.0" y="892.0" font-family="-apple-system,Segoe UI,Helvetica,Arial,sans-serif" font-size="10" font-weight="normal" fill="#6e7781" text-anchor="start">count</text></svg>